<svg width="500" height="373" viewBox="0 0 500 373" fill="none"
  xmlns="http://www.w3.org/2000/svg">
  <g clip-path="url(#clip0_245_11372)">
    <path d="M500 327.449H0V327.699H500V327.449Z" fill="#EBEBEB"/>
    <path d="M449.901 343.539H416.781V343.789H449.901V343.539Z" fill="#EBEBEB"/>
    <path d="M331.221 346.26H322.531V346.51H331.221V346.26Z" fill="#EBEBEB"/>
    <path d="M415.784 334.26H396.594V334.51H415.784V334.26Z" fill="#EBEBEB"/>
    <path d="M95.6509 335.939H52.4609V336.189H95.6509V335.939Z" fill="#EBEBEB"/>
    <path d="M110.893 335.939H104.562V336.189H110.893V335.939Z" fill="#EBEBEB"/>
    <path d="M225.149 340.16H131.469V340.41H225.149V340.16Z" fill="#EBEBEB"/>
    <path d="M237.013 282.85H43.9131C40.7631 282.85 38.2031 280.29 38.2031 277.14V5.71C38.2031 2.56 40.7631 0 43.9131 0H237.013C240.163 0 242.723 2.56 242.723 5.71V277.14C242.723 280.29 240.163 282.85 237.013 282.85ZM43.9131 0.25C40.9031 0.25 38.4531 2.7 38.4531 5.71V277.14C38.4531 280.15 40.9031 282.6 43.9131 282.6H237.013C240.023 282.6 242.473 280.15 242.473 277.14V5.71C242.473 2.7 240.023 0.25 237.013 0.25H43.9131Z" fill="#EBEBEB"/>
    <path d="M453.31 282.85H260.21C257.06 282.85 254.5 280.29 254.5 277.14V5.71C254.5 2.56 257.06 0 260.21 0H453.31C456.46 0 459.02 2.56 459.02 5.71V277.14C459.02 280.29 456.46 282.85 453.31 282.85ZM260.21 0.25C257.2 0.25 254.75 2.7 254.75 5.71V277.14C254.75 280.15 257.2 282.6 260.21 282.6H453.31C456.32 282.6 458.77 280.15 458.77 277.14V5.71C458.77 2.7 456.32 0.25 453.31 0.25H260.21Z" fill="#EBEBEB"/>
    <path d="M289.689 119.111L427.469 119.111V28.8813L289.689 28.8813V119.111Z" fill="#E6E6E6"/>
    <path d="M285.48 119.111L425.5 119.111V28.8813L285.48 28.8813V119.111Z" fill="#F0F0F0"/>
    <path d="M289.689 136.811L427.469 136.811V119.101L289.689 119.101V136.811Z" fill="#E6E6E6"/>
    <path d="M278.496 136.811L418.516 136.811V119.101L278.496 119.101V136.811Z" fill="#F0F0F0"/>
    <path d="M419.625 113.232V34.7715L291.375 34.7715V113.232L419.625 113.232Z" fill="#FAFAFA"/>
    <path d="M390.706 113.221L374.326 34.7715H348.766L365.146 113.221H390.706Z" fill="white"/>
    <path d="M416.904 107.36C417.134 107.36 417.324 107.17 417.324 106.94V38.5899C417.324 38.3599 417.134 38.1699 416.904 38.1699C416.674 38.1699 416.484 38.3599 416.484 38.5899V106.94C416.484 107.17 416.674 107.36 416.904 107.36Z" fill="#F0F0F0"/>
    <path d="M359.655 113.221L343.275 34.7715H333.305L349.695 113.221H359.655Z" fill="white"/>
    <path d="M292.125 113.231V34.7715H291.375V113.231H292.125Z" fill="#E6E6E6"/>
    <path opacity="0.6" d="M284.094 43.6408H421.884L422.424 37.0508H284.644L284.094 43.6408Z" fill="#EBEBEB"/>
    <path opacity="0.6" d="M284.094 54.4416H421.884L422.424 47.8516H284.644L284.094 54.4416Z" fill="#EBEBEB"/>
    <path opacity="0.6" d="M284.094 65.2402H421.884L422.424 58.6602H284.644L284.094 65.2402Z" fill="#EBEBEB"/>
    <path opacity="0.6" d="M284.094 76.0409H421.884L422.424 69.4609H284.644L284.094 76.0409Z" fill="#EBEBEB"/>
    <path opacity="0.6" d="M284.094 86.8517H421.884L422.424 80.2617H284.644L284.094 86.8517Z" fill="#EBEBEB"/>
    <path opacity="0.6" d="M284.094 97.6506H421.884L422.424 91.0605H284.644L284.094 97.6506Z" fill="#EBEBEB"/>
    <path d="M407.687 261.83H378.797V267.53H407.687V261.83Z" fill="#E6E6E6"/>
    <path d="M324.311 327.451H329.641V196.381H324.311V327.451Z" fill="#E6E6E6"/>
    <path d="M305.829 267.521H378.789V261.821H305.829V267.521Z" fill="#F5F5F5"/>
    <path d="M407.687 293H378.797V298.7H407.687V293Z" fill="#E6E6E6"/>
    <path d="M305.829 298.691H378.789V292.991H305.829V298.691Z" fill="#F5F5F5"/>
    <path d="M407.687 199.5H378.797V205.2H407.687V199.5Z" fill="#E6E6E6"/>
    <path d="M305.829 205.191H378.789V199.491H305.829V205.191Z" fill="#F5F5F5"/>
    <path d="M407.687 230.66H378.797V236.36H407.687V230.66Z" fill="#E6E6E6"/>
    <path d="M305.829 236.361H378.789V230.661H305.829V236.361Z" fill="#F5F5F5"/>
    <path d="M397.279 327.451H402.609V196.381H397.279V327.451Z" fill="#E6E6E6"/>
    <path d="M373.459 327.451H378.789V196.381H373.459V327.451Z" fill="#F5F5F5"/>
    <path d="M305.826 327.451H311.156V196.381H305.826V327.451Z" fill="#F5F5F5"/>
    <path d="M65.3809 327.451H119.961L119.961 221.561H65.3809L65.3809 327.451Z" fill="#E6E6E6"/>
    <path d="M79.9472 327.45H65.3672V312.83H95.2272L79.9472 327.45Z" fill="#FAFAFA"/>
    <path d="M214.178 327.451H268.758V221.561H214.178V327.451Z" fill="#E6E6E6"/>
    <path d="M65.3763 322.42H226.906V221.56H65.3763V322.42Z" fill="#FAFAFA"/>
    <path d="M212.327 327.45H226.897V312.83H197.047L212.327 327.45Z" fill="#FAFAFA"/>
    <path d="M76.6737 284.381H215.594V259.141H76.6737V284.381Z" fill="#F0F0F0"/>
    <path d="M76.6737 315.021H215.594V289.781H76.6737V315.021Z" fill="#F0F0F0"/>
    <path d="M189.196 261.84H103.086C100.556 261.84 98.5056 259.79 98.5056 257.26V256.95H193.766V257.26C193.766 259.79 191.716 261.84 189.186 261.84H189.196Z" fill="#FAFAFA"/>
    <path d="M76.6737 253.75L215.594 253.75V228.51L76.6737 228.51V253.75Z" fill="#F0F0F0"/>
    <path d="M189.196 231.201H103.086C100.556 231.201 98.5056 229.151 98.5056 226.621V226.311H193.766V226.621C193.766 229.151 191.716 231.201 189.186 231.201H189.196Z" fill="#FAFAFA"/>
    <path d="M189.196 292.471H103.086C100.556 292.471 98.5056 290.421 98.5056 287.891V287.581H193.766V287.891C193.766 290.421 191.716 292.471 189.186 292.471H189.196Z" fill="#FAFAFA"/>
    <path d="M74.0716 119.111L211.852 119.111V28.8813L74.0716 28.8813V119.111Z" fill="#E6E6E6"/>
    <path d="M69.8706 119.111L209.891 119.111V28.8813L69.8706 28.8813V119.111Z" fill="#F0F0F0"/>
    <path d="M74.0716 136.811L211.852 136.811V119.101L74.0716 119.101V136.811Z" fill="#E6E6E6"/>
    <path d="M62.8628 136.811L202.883 136.811V119.101L62.8628 119.101V136.811Z" fill="#F0F0F0"/>
    <path d="M204 113.231V34.7715L75.75 34.7715V113.231L204 113.231Z" fill="#FAFAFA"/>
    <path d="M175.081 113.221L158.701 34.7715H133.141L149.521 113.221H175.081Z" fill="white"/>
    <path d="M201.272 107.36C201.502 107.36 201.692 107.17 201.692 106.94V38.5899C201.692 38.3599 201.502 38.1699 201.272 38.1699C201.042 38.1699 200.852 38.3599 200.852 38.5899V106.94C200.852 107.17 201.042 107.36 201.272 107.36Z" fill="#F0F0F0"/>
    <path d="M144.03 113.221L127.65 34.7715H117.68L134.06 113.221H144.03Z" fill="white"/>
    <path d="M76.5 113.231V34.7715H75.75V113.231H76.5Z" fill="#E6E6E6"/>
    <path opacity="0.6" d="M68.4688 43.6408H206.249L206.789 37.0508H69.0088L68.4688 43.6408Z" fill="#EBEBEB"/>
    <path opacity="0.6" d="M68.4688 47.3515H206.249L206.789 40.7715H69.0088L68.4688 47.3515Z" fill="#EBEBEB"/>
    <path opacity="0.6" d="M68.4688 51.0705H206.249L206.789 44.4805H69.0088L68.4688 51.0705Z" fill="#EBEBEB"/>
    <path opacity="0.6" d="M68.4688 54.7812H206.249L206.789 48.2012H69.0088L68.4688 54.7812Z" fill="#EBEBEB"/>
    <path opacity="0.6" d="M68.4688 58.5002H206.249L206.789 51.9102H69.0088L68.4688 58.5002Z" fill="#EBEBEB"/>
    <path opacity="0.6" d="M68.4688 62.2209H206.249L206.789 55.6309H69.0088L68.4688 62.2209Z" fill="#EBEBEB"/>
    <path d="M96.0213 218.311H100.781V165.221H96.0213V218.311Z" fill="#F5F5F5"/>
    <path d="M96.6187 218.281H97.9688V165.191H96.6187V218.281Z" fill="#FAFAFA"/>
    <path d="M98.5325 218.281H99.0625V165.191H98.5325V218.281Z" fill="#FAFAFA"/>
    <path d="M116.031 221.561H80.7713C80.7713 219.111 82.7613 217.121 85.2113 217.121H111.591C114.041 217.121 116.031 219.111 116.031 221.561Z" fill="#F0F0F0"/>
    <path d="M89.8387 198.191C90.5887 198.191 91.2087 197.571 91.2087 196.821V162.011C91.2087 161.261 90.5887 160.641 89.8387 160.641C89.0887 160.641 88.4688 161.261 88.4688 162.011V196.821C88.4688 197.571 89.0887 198.191 89.8387 198.191Z" fill="#F0F0F0"/>
    <path d="M77.0703 177.851H119.72L114.81 148.051H81.9803L77.0703 177.851Z" fill="#E0E0E0"/>
    <path d="M249.999 372.611C357.082 372.611 443.889 367.543 443.889 361.291C443.889 355.039 357.082 349.971 249.999 349.971C142.917 349.971 56.1094 355.039 56.1094 361.291C56.1094 367.543 142.917 372.611 249.999 372.611Z" fill="#F5F5F5"/>
    <path d="M104.122 147.413L103.125 147.484L104.453 165.927L105.451 165.855L104.122 147.413Z" fill="#407BFF"/>
    <path d="M106.13 175.375L105.133 175.447L105.633 182.389L106.63 182.317L106.13 175.375Z" fill="#407BFF"/>
    <path d="M337.713 260.211H123.553C118.713 260.211 114.463 256.251 114.113 251.401L103.593 105.271C103.243 100.431 106.923 96.4609 111.763 96.4609H325.923C330.763 96.4609 335.013 100.421 335.363 105.271L345.883 251.401C346.233 256.241 342.553 260.211 337.713 260.211Z" fill="#407BFF"/>
    <path d="M338.534 260.211H124.374C119.534 260.211 115.284 256.251 114.934 251.401L104.414 105.271C104.064 100.431 107.744 96.4609 112.584 96.4609H326.744C331.584 96.4609 335.834 100.421 336.184 105.271L346.704 251.401C347.054 256.241 343.374 260.211 338.534 260.211Z" fill="#407BFF"/>
    <path opacity="0.5" d="M338.534 260.211H124.374C119.534 260.211 115.284 256.251 114.934 251.401L104.414 105.271C104.064 100.431 107.744 96.4609 112.584 96.4609H326.744C331.584 96.4609 335.834 100.421 336.184 105.271L346.704 251.401C347.054 256.241 343.374 260.211 338.534 260.211Z" fill="white"/>
    <path d="M327.066 100.871H112.906C112.666 100.871 112.426 100.871 112.186 100.901C106.716 101.351 107.826 109.681 113.356 109.681H327.876C333.406 109.681 333.316 101.351 327.776 100.901C327.536 100.881 327.296 100.871 327.056 100.871H327.066Z" fill="#407BFF"/>
    <path d="M118.481 105.27C118.561 106.39 117.721 107.29 116.611 107.29C115.501 107.29 114.531 106.39 114.451 105.27C114.371 104.16 115.211 103.25 116.321 103.25C117.431 103.25 118.401 104.15 118.481 105.27Z" fill="#FAFAFA"/>
    <path d="M125.356 105.27C125.436 106.39 124.596 107.29 123.486 107.29C122.376 107.29 121.406 106.39 121.326 105.27C121.246 104.16 122.086 103.25 123.196 103.25C124.306 103.25 125.276 104.15 125.356 105.27Z" fill="#FAFAFA"/>
    <path d="M132.215 105.27C132.295 106.39 131.455 107.29 130.345 107.29C129.235 107.29 128.265 106.39 128.185 105.27C128.105 104.16 128.945 103.25 130.055 103.25C131.165 103.25 132.135 104.15 132.215 105.27Z" fill="#FAFAFA"/>
    <path d="M332.854 245.62H127.954C126.194 245.62 124.654 244.19 124.534 242.43L115.884 122.26C115.754 120.5 117.084 119.07 118.844 119.07H323.744C325.504 119.07 327.044 120.5 327.164 122.26L335.814 242.43C335.944 244.19 334.614 245.62 332.854 245.62Z" fill="white"/>
    <path d="M246.523 199.851L243.183 153.531L233.083 147.441H205.273L209.053 199.851H246.523Z" fill="white"/>
    <path d="M246.525 200.331H209.055C208.805 200.331 208.585 200.131 208.575 199.881L204.805 147.481C204.805 147.351 204.845 147.211 204.935 147.111C205.025 147.011 205.155 146.961 205.285 146.961H233.085C233.175 146.961 233.255 146.981 233.335 147.031L243.445 153.111C243.585 153.191 243.665 153.331 243.675 153.491L247.015 199.811C247.015 199.941 246.975 200.081 246.885 200.181C246.795 200.281 246.665 200.331 246.535 200.331H246.525ZM209.505 199.361H246.005L242.725 153.811L232.945 147.931H205.795L209.495 199.361H209.505Z" fill="#407BFF"/>
    <path d="M243.186 153.531L233.086 147.441L236.796 155.501L243.186 153.531Z" fill="#EBEBEB"/>
    <path d="M236.796 155.991C236.616 155.991 236.436 155.881 236.356 155.711L232.646 147.651C232.556 147.461 232.606 147.231 232.766 147.091C232.926 146.951 233.156 146.931 233.336 147.041L243.446 153.121C243.606 153.221 243.696 153.401 243.676 153.591C243.656 153.781 243.516 153.941 243.336 153.991L236.936 155.971C236.936 155.971 236.836 155.991 236.796 155.991ZM234.186 148.671L237.066 154.911L242.026 153.381L234.196 148.671H234.186Z" fill="#407BFF"/>
    <path d="M220.969 171.052C221.049 172.222 220.169 173.172 219.009 173.172C217.849 173.172 216.819 172.222 216.739 171.052C216.659 169.882 217.539 168.932 218.699 168.932C219.859 168.932 220.889 169.882 220.969 171.052Z" fill="#407BFF"/>
    <path d="M234.696 171.052C234.776 172.222 233.896 173.172 232.736 173.172C231.576 173.172 230.546 172.222 230.466 171.052C230.386 169.882 231.266 168.932 232.426 168.932C233.586 168.932 234.616 169.882 234.696 171.052Z" fill="#407BFF"/>
    <path d="M238.576 184.781C238.326 184.781 238.116 184.591 238.096 184.331C237.846 180.931 232.516 178.161 226.196 178.161C222.016 178.161 218.256 179.401 216.386 181.411C215.556 182.301 215.176 183.261 215.246 184.271C215.266 184.541 215.066 184.771 214.796 184.791C214.526 184.811 214.296 184.611 214.276 184.341C214.186 183.071 214.666 181.831 215.676 180.751C217.716 178.561 221.746 177.191 226.196 177.191C233.126 177.191 238.776 180.301 239.066 184.261C239.086 184.531 238.886 184.761 238.616 184.781C238.606 184.781 238.596 184.781 238.576 184.781Z" fill="#407BFF"/>
    <path d="M213.168 166.762C213.048 166.762 212.928 166.722 212.838 166.632C212.638 166.452 212.628 166.142 212.808 165.952L214.928 163.662C215.108 163.462 215.418 163.452 215.608 163.632C215.808 163.812 215.818 164.122 215.638 164.312L213.518 166.602C213.418 166.702 213.288 166.762 213.158 166.762H213.168Z" fill="#407BFF"/>
    <path d="M237.577 166.76C237.457 166.76 237.337 166.72 237.247 166.63L234.797 164.34C234.597 164.16 234.587 163.85 234.777 163.66C234.957 163.46 235.267 163.45 235.457 163.64L237.907 165.93C238.107 166.11 238.117 166.42 237.927 166.61C237.827 166.71 237.707 166.76 237.577 166.76Z" fill="#407BFF"/>
    <path d="M202.258 210.201H204.518L207.778 214.531L207.468 210.201H209.748L210.308 218.031H208.028L204.788 213.731L205.098 218.031H202.818L202.258 210.201Z" fill="#407BFF"/>
    <path d="M211.329 214.121C211.239 212.841 211.519 211.851 212.179 211.131C212.839 210.411 213.809 210.061 215.079 210.061C216.349 210.061 217.409 210.411 218.169 211.111C218.929 211.811 219.349 212.791 219.439 214.051C219.509 214.971 219.409 215.721 219.139 216.301C218.869 216.891 218.459 217.341 217.899 217.671C217.339 218.001 216.629 218.161 215.759 218.161C214.889 218.161 214.139 218.021 213.539 217.741C212.939 217.461 212.439 217.011 212.039 216.401C211.639 215.791 211.399 215.031 211.339 214.111L211.329 214.121ZM213.749 214.131C213.809 214.921 213.989 215.491 214.309 215.831C214.629 216.181 215.039 216.351 215.549 216.351C216.059 216.351 216.459 216.181 216.719 215.841C216.979 215.501 217.079 214.891 217.019 214.021C216.969 213.281 216.779 212.741 216.459 212.401C216.139 212.061 215.719 211.891 215.209 211.891C214.699 211.891 214.339 212.061 214.069 212.411C213.799 212.761 213.689 213.331 213.749 214.131Z" fill="#407BFF"/>
    <path d="M224.151 210.201H227.751C228.461 210.201 229.041 210.301 229.491 210.491C229.941 210.681 230.321 210.961 230.631 211.321C230.941 211.681 231.181 212.101 231.341 212.581C231.501 213.061 231.601 213.561 231.641 214.101C231.701 214.941 231.651 215.591 231.491 216.051C231.331 216.511 231.101 216.901 230.781 217.211C230.461 217.521 230.121 217.731 229.731 217.831C229.211 217.971 228.731 218.041 228.301 218.041H224.701L224.141 210.211L224.151 210.201ZM226.701 211.971L227.011 216.251H227.601C228.111 216.251 228.461 216.191 228.671 216.081C228.881 215.971 229.031 215.771 229.131 215.491C229.231 215.211 229.261 214.761 229.211 214.131C229.151 213.301 228.971 212.731 228.681 212.431C228.391 212.121 227.931 211.971 227.301 211.971H226.701Z" fill="#407BFF"/>
    <path d="M237.447 216.741H234.697L234.408 218.031H231.938L234.318 210.201H236.958L240.467 218.031H237.938L237.458 216.741H237.447ZM236.827 215.051L235.757 212.231L235.107 215.051H236.827Z" fill="#407BFF"/>
    <path d="M239.367 210.201H246.727L246.867 212.131H244.397L244.817 218.031H242.397L241.977 212.131H239.507L239.367 210.201Z" fill="#407BFF"/>
    <path d="M252.369 216.741H249.619L249.329 218.031H246.859L249.239 210.201H251.879L255.389 218.031H252.859L252.379 216.741H252.369ZM251.749 215.051L250.679 212.231L250.029 215.051H251.749Z" fill="#407BFF"/>
    <path d="M353.69 118.129C354.58 117.679 355.65 117.099 356.63 116.559C357.63 116.009 358.63 115.429 359.61 114.839C361.57 113.629 363.54 112.439 365.42 111.119C369.2 108.509 372.75 105.619 375.93 102.469C376.35 102.089 376.7 101.659 377.09 101.259L377.66 100.649L377.95 100.339L378.09 100.189C378.09 100.189 378.12 100.159 378.1 100.189L378.07 100.239C377.93 100.509 378.05 100.429 378.1 100.169C378.17 99.9194 378.22 99.5195 378.24 99.0795C378.3 97.2595 377.95 94.9695 377.51 92.7595C376.62 88.2695 375.27 83.6595 373.94 79.1395L377.83 77.4395C380.26 81.7895 382.29 86.2195 383.94 91.0395C384.73 93.4795 385.45 95.9295 385.66 98.9295C385.7 99.6995 385.72 100.499 385.58 101.439C385.43 102.359 385.2 103.469 384.36 104.719L384.19 104.949L384.06 105.119L383.91 105.309L383.6 105.679L382.98 106.429C382.56 106.919 382.17 107.449 381.72 107.909C378.27 111.739 374.44 115.119 370.34 118.059C368.3 119.549 366.22 120.959 364.06 122.249C362.98 122.899 361.89 123.529 360.78 124.139C359.66 124.759 358.59 125.309 357.31 125.909L353.68 118.149L353.69 118.129Z" fill="#FFB573"/>
    <path d="M344.79 353.23C345.56 353.23 346.41 353.07 347 352.93C347.08 352.91 347.14 352.85 347.15 352.77C347.16 352.69 347.13 352.61 347.06 352.57C346.77 352.38 344.23 350.74 343.25 351.18C343.1 351.25 342.9 351.4 342.86 351.74C342.8 352.18 342.91 352.54 343.19 352.79C343.55 353.12 344.14 353.23 344.79 353.23ZM346.44 352.65C344.98 352.94 343.89 352.89 343.46 352.5C343.28 352.34 343.21 352.1 343.26 351.79C343.28 351.62 343.36 351.57 343.43 351.54C343.94 351.31 345.41 352.02 346.45 352.64L346.44 352.65Z" fill="#407BFF"/>
    <path d="M346.957 352.93C346.957 352.93 347.027 352.93 347.057 352.9C347.117 352.86 347.157 352.8 347.157 352.73C347.157 352.63 347.147 350.22 346.237 349.41C345.997 349.2 345.717 349.11 345.397 349.14C344.897 349.2 344.767 349.51 344.727 349.69C344.537 350.63 346.057 352.44 346.857 352.89C346.887 352.91 346.917 352.92 346.957 352.92V352.93ZM345.527 349.53C345.687 349.53 345.837 349.59 345.967 349.7C346.507 350.18 346.697 351.54 346.747 352.34C345.947 351.7 344.997 350.35 345.117 349.77C345.137 349.68 345.187 349.56 345.447 349.53C345.477 349.53 345.507 349.53 345.537 349.53H345.527Z" fill="#407BFF"/>
    <path d="M346.221 93.1096C345.251 98.0796 343.191 108.15 346.671 111.46C346.671 111.46 345.311 116.5 336.081 116.5C325.921 116.5 331.231 111.46 331.231 111.46C336.771 110.14 336.631 106.02 335.661 102.16L346.221 93.0996V93.1096Z" fill="#FFB573"/>
    <path d="M329.277 113.471C327.687 113.691 329.037 109.561 329.687 109.131C331.187 108.141 350.537 106.741 350.417 109.091C350.337 110.101 349.867 112.071 349.017 112.741C348.167 113.411 343.197 111.391 329.287 113.471H329.277Z" fill="#263238"/>
    <path d="M332.438 112.081C331.168 112.511 331.288 108.351 331.728 107.851C332.728 106.691 348.388 102.671 348.858 104.941C349.038 105.921 349.128 107.891 348.588 108.651C348.048 109.411 343.448 108.151 332.448 112.081H332.438Z" fill="#263238"/>
    <path d="M326.612 84.1597C326.492 84.1597 326.362 84.1197 326.282 84.0197C325.162 82.6497 323.702 82.7897 323.692 82.7897C323.472 82.8097 323.282 82.6597 323.252 82.4397C323.232 82.2197 323.382 82.0297 323.602 81.9997C323.682 81.9997 325.502 81.8197 326.892 83.5097C327.032 83.6797 327.002 83.9297 326.832 84.0697C326.762 84.1297 326.682 84.1497 326.602 84.1597H326.612Z" fill="#263238"/>
    <path d="M324.673 89.0508C324.673 89.0508 323.813 92.0608 322.703 93.5808C323.673 94.3208 325.143 93.7908 325.143 93.7908L324.673 89.0508Z" fill="#FF5652"/>
    <path d="M325.157 87.8308C325.227 88.5008 324.917 89.0808 324.477 89.1308C324.037 89.1708 323.627 88.6608 323.557 87.9908C323.487 87.3208 323.797 86.7408 324.237 86.6908C324.677 86.6408 325.087 87.1608 325.157 87.8308Z" fill="#263238"/>
    <path d="M324.441 86.7104L322.781 86.4004C322.781 86.4004 323.731 87.5804 324.441 86.7104Z" fill="#263238"/>
    <path d="M356.7 352.73H348.32L348.98 333.34H357.36L356.7 352.73Z" fill="#FFB573"/>
    <path d="M347.662 351.76H357.072C357.412 351.76 357.692 352 357.742 352.33L358.812 359.78C358.922 360.55 358.262 361.28 357.472 361.27C354.192 361.21 352.612 361.02 348.472 361.02C345.922 361.02 342.202 361.28 338.692 361.28C335.182 361.28 334.992 357.8 336.452 357.49C343.012 356.08 344.052 354.13 346.262 352.27C346.662 351.94 347.162 351.75 347.662 351.75V351.76Z" fill="#263238"/>
    <g opacity="0.2">
      <path d="M357.361 333.34H348.981L348.641 343.34H357.021L357.361 333.34Z" fill="black"/>
    </g>
    <path d="M323.37 123.09C318.19 121.06 313.24 118.85 308.32 116.34C303.4 113.82 298.57 111.15 293.92 107.57C292.76 106.66 291.62 105.66 290.5 104.5C290.22 104.2 289.94 103.92 289.67 103.58C289.38 103.22 289.16 103.01 288.79 102.45C288.11 101.48 287.59 100.17 287.45 98.8401C287.32 97.5101 287.56 96.2301 287.94 95.2201C288.32 94.1901 288.82 93.3401 289.35 92.6101C290.4 91.1501 291.57 90.0601 292.74 89.0901C295.08 87.1501 297.56 85.7401 300.04 84.4201C301.28 83.7601 302.54 83.1701 303.82 82.6201C305.11 82.0601 306.36 81.5501 307.73 81.0801L309.51 84.9301C305.15 87.6801 300.63 90.7001 297.31 94.0901C296.5 94.9301 295.8 95.8101 295.35 96.5801C294.87 97.3701 294.88 97.9601 294.96 97.9101C295 97.9101 294.98 97.8901 295.1 98.0101L295.5 98.4401C295.65 98.6201 295.86 98.8001 296.05 98.9901C296.84 99.7201 297.76 100.46 298.75 101.16C300.73 102.57 302.92 103.89 305.18 105.13C307.43 106.38 309.75 107.58 312.12 108.72C316.83 110.98 321.72 113.15 326.51 115.13L323.38 123.1L323.37 123.09Z" fill="#FFB573"/>
    <path d="M311.968 82.1998L313.358 79.1998L307.058 77.0098C307.058 77.0098 305.098 82.9098 307.438 85.6398C309.428 85.3198 311.128 84.0298 311.968 82.1998Z" fill="#FFB573"/>
    <path d="M313.353 72.7L308.323 71.25L307.062 77.01L313.353 79.2V72.7Z" fill="#FFB573"/>
    <path d="M378.346 79.4907L379.076 72.4707L372.586 73.9907C372.586 73.9907 372.486 80.5707 375.926 81.6207L378.346 79.4907Z" fill="#FFB573"/>
    <path d="M375.957 67.5508L371.727 69.5308L372.597 73.9908L379.077 72.4708L375.957 67.5508Z" fill="#FFB573"/>
    <path d="M347.542 83.2993C347.852 91.6093 348.152 95.1193 344.402 99.7693C338.752 106.759 328.482 105.319 325.702 97.2693C323.202 90.0293 323.122 77.6593 330.882 73.5793C338.532 69.5593 347.242 74.9993 347.542 83.3093V83.2993Z" fill="#FFB573"/>
    <path d="M343.92 99.7502C352.08 96.2302 357.44 88.8002 355.17 77.1802C353 66.0602 345.5 64.9702 342.4 67.2702C339.3 69.5802 331.57 66.1402 326.94 70.0402C318.91 76.8002 326.5 84.0902 330.46 88.4102C332.82 93.2702 335.92 103.21 343.92 99.7502Z" fill="#263238"/>
    <path d="M340.533 75.1803C343.283 79.1603 348.563 80.2903 352.323 77.6903C356.083 75.0903 356.903 69.7603 354.143 65.7703C351.393 61.7903 346.113 60.6603 342.353 63.2603C338.593 65.8603 337.773 71.1903 340.533 75.1803Z" fill="#407BFF"/>
    <path d="M342.649 68.0501C341.469 61.3501 347.809 56.1901 356.289 58.6801C364.759 61.1801 360.279 68.6901 358.539 74.6901C356.799 80.6901 361.359 86.4001 363.269 81.8401C365.179 77.2701 361.969 75.8601 361.969 75.8601C361.969 75.8601 370.969 78.1901 362.609 88.3401C354.249 98.4801 346.679 87.2801 348.729 80.6701C350.379 75.3301 343.759 74.3801 342.649 68.0501Z" fill="#263238"/>
    <path d="M334.18 70.5796C330.31 68.5596 323.76 66.9296 320.03 73.1996C318.27 76.1696 318.95 80.1896 318.95 80.1896L330.34 80.9496L334.18 70.5796Z" fill="#263238"/>
    <path d="M317.61 78.2193C317.61 78.2193 317.6 78.2193 317.59 78.2193C317.45 78.2193 317.35 78.0893 317.36 77.9593C317.37 77.7893 317.65 73.7693 320.07 71.2393C325.94 65.1393 332.82 70.1993 334.79 71.8993C334.89 71.9893 334.91 72.1493 334.82 72.2493C334.73 72.3493 334.57 72.3693 334.47 72.2793C332.59 70.6593 326 65.8093 320.44 71.5893C318.14 73.9793 317.87 77.9493 317.86 77.9893C317.86 78.1193 317.74 78.2193 317.61 78.2193Z" fill="#263238"/>
    <path d="M331.846 88.0796C331.836 89.6996 331.106 91.2796 330.186 92.3596C328.806 93.9796 327.216 93.1796 326.856 91.3896C326.526 89.7796 326.856 86.9896 328.596 86.0196C330.316 85.0596 331.846 86.2396 331.836 88.0896L331.846 88.0796Z" fill="#FFB573"/>
    <path d="M330.049 164.17C330.049 164.17 330.579 222.31 335.629 254.71C339.699 280.88 347.239 341.4 347.239 341.4H358.659C358.659 341.4 359.779 282.98 357.709 257.09C352.479 191.59 365.979 179.35 355.079 164.16H330.039L330.049 164.17Z" fill="#263238"/>
    <path opacity="0.1" d="M330.049 164.17C330.049 164.17 330.579 222.31 335.629 254.71C339.699 280.88 347.239 341.4 347.239 341.4H358.659C358.659 341.4 359.779 282.98 357.709 257.09C352.479 191.59 365.979 179.35 355.079 164.16H330.039L330.049 164.17Z" fill="white"/>
    <path opacity="0.3" d="M336.059 190.55C340.069 208.1 336.869 235.74 334.679 247.91C332.359 229.43 331.189 205.48 330.609 187.93C332.679 184.57 334.639 184.35 336.059 190.55Z" fill="black"/>
    <path d="M345.682 341.63H360.232L360.992 336.53L345.602 336L345.682 341.63Z" fill="#407BFF"/>
    <path d="M349.828 115.09C351.198 112.37 358.548 110.66 362.578 110.66L365.588 124.02C365.588 124.02 357.578 135.91 354.248 134.65C350.308 133.16 346.908 120.91 349.838 115.08L349.828 115.09Z" fill="#407BFF"/>
    <path opacity="0.4" d="M349.828 115.09C351.198 112.37 358.548 110.66 362.578 110.66L365.588 124.02C365.588 124.02 357.578 135.91 354.248 134.65C350.308 133.16 346.908 120.91 349.838 115.08L349.828 115.09Z" fill="black"/>
    <path d="M341.353 338.359C341.393 338.299 341.393 338.229 341.353 338.159C341.313 338.089 341.233 338.039 341.153 338.059C340.733 338.119 337.033 338.709 336.533 339.769C336.433 339.969 336.453 340.189 336.573 340.389C336.773 340.729 337.063 340.919 337.433 340.959C338.643 341.089 340.393 339.399 341.333 338.389C341.333 338.389 341.353 338.369 341.353 338.359ZM336.913 339.899C337.253 339.339 339.173 338.819 340.633 338.549C339.313 339.889 338.153 340.639 337.473 340.569C337.233 340.549 337.053 340.419 336.913 340.189C336.863 340.099 336.853 340.019 336.893 339.939C336.893 339.929 336.903 339.909 336.913 339.899Z" fill="#407BFF"/>
    <path d="M341.353 338.36C341.353 338.36 341.363 338.33 341.373 338.32C341.393 338.25 341.373 338.18 341.333 338.13C341.273 338.06 339.783 336.35 338.423 336.26C338.003 336.23 337.633 336.36 337.333 336.63C336.923 337 336.953 337.32 337.063 337.52C337.493 338.38 340.153 338.68 341.233 338.45C341.283 338.44 341.333 338.41 341.363 338.36H341.353ZM337.443 337.1C337.473 337.05 337.523 336.99 337.603 336.92C337.833 336.72 338.093 336.63 338.403 336.65C339.303 336.71 340.323 337.64 340.783 338.11C339.593 338.21 337.673 337.85 337.413 337.33C337.393 337.3 337.363 337.22 337.443 337.09V337.1Z" fill="#407BFF"/>
    <path d="M350.083 334.81L342.423 338.22L339.013 331.11L334.553 321.81L334.023 320.72L341.683 317.32L342.273 318.53L346.593 327.54L350.083 334.81Z" fill="#FFB573"/>
    <path opacity="0.2" d="M346.587 327.539L339.007 331.109L334.547 321.809L342.267 318.529L346.587 327.539Z" fill="black"/>
    <path d="M321.073 164.17C321.073 164.17 296.603 225 303.233 253.65C309.233 279.54 335.733 328.57 335.733 328.57L345.983 323.42C345.983 323.42 329.593 264.23 327.813 251.37C324.353 226.35 346.593 191.04 346.593 164.16H321.073V164.17Z" fill="#263238"/>
    <path opacity="0.1" d="M321.073 164.17C321.073 164.17 296.603 225 303.233 253.65C309.233 279.54 335.733 328.57 335.733 328.57L345.983 323.42C345.983 323.42 329.593 264.23 327.813 251.37C324.353 226.35 346.593 191.04 346.593 164.16H321.073V164.17Z" fill="white"/>
    <path d="M341.062 337.151L348.672 331.611C348.952 331.411 349.312 331.441 349.552 331.681L354.802 337.071C355.342 337.631 355.242 338.611 354.592 339.061C351.902 340.951 350.512 341.721 347.172 344.151C345.112 345.651 341.012 348.961 338.172 351.031C335.392 353.051 333.132 350.401 334.132 349.281C338.612 344.281 339.552 341.181 340.242 338.381C340.372 337.871 340.662 337.431 341.072 337.141L341.062 337.151Z" fill="#263238"/>
    <path d="M335.068 330.741L348.297 324.691L346.607 319.301L332.438 325.761L335.068 330.741Z" fill="#407BFF"/>
    <path d="M327.56 114.411C326.46 111.571 316.9 108.451 312.11 107.371L310 123.141C310 123.141 317.83 134.401 321.27 133.461C325.33 132.361 329.91 120.501 327.56 114.411Z" fill="#407BFF"/>
    <path opacity="0.4" d="M327.56 114.411C326.46 111.571 316.9 108.451 312.11 107.371L310 123.141C310 123.141 317.83 134.401 321.27 133.461C325.33 132.361 329.91 120.501 327.56 114.411Z" fill="black"/>
    <path d="M317.067 113.611C317.067 113.611 313.077 115.021 321.067 164.171H355.087C354.517 150.321 354.497 141.791 361.117 113.371C361.117 113.371 353.987 111.821 346.667 111.471C340.947 111.191 336.257 111.011 331.217 111.471C324.587 112.081 317.057 113.621 317.057 113.621L317.067 113.611Z" fill="#407BFF"/>
    <path opacity="0.4" d="M317.067 113.611C317.067 113.611 313.077 115.021 321.067 164.171H355.087C354.517 150.321 354.497 141.791 361.117 113.371C361.117 113.371 353.987 111.821 346.667 111.471C340.947 111.191 336.257 111.011 331.217 111.471C324.587 112.081 317.057 113.621 317.057 113.621L317.067 113.611Z" fill="black"/>
    <path d="M355.599 162.17L357.129 165.22C357.249 165.46 356.969 165.7 356.579 165.7H320.899C320.589 165.7 320.339 165.55 320.319 165.36L320.009 162.31C319.989 162.1 320.249 161.92 320.589 161.92H355.039C355.289 161.92 355.519 162.02 355.589 162.18L355.599 162.17Z" fill="#407BFF"/>
    <path opacity="0.3" d="M355.599 162.17L357.129 165.22C357.249 165.46 356.969 165.7 356.579 165.7H320.899C320.589 165.7 320.339 165.55 320.319 165.36L320.009 162.31C319.989 162.1 320.249 161.92 320.589 161.92H355.039C355.289 161.92 355.519 162.02 355.589 162.18L355.599 162.17Z" fill="white"/>
    <path d="M350.97 166.021H351.89C352.07 166.021 352.21 165.931 352.2 165.811L351.77 161.851C351.76 161.731 351.6 161.641 351.41 161.641H350.49C350.31 161.641 350.17 161.731 350.18 161.851L350.61 165.811C350.62 165.931 350.78 166.021 350.97 166.021Z" fill="#263238"/>
    <path d="M328.611 166.021H329.531C329.711 166.021 329.851 165.931 329.841 165.811L329.411 161.851C329.401 161.731 329.241 161.641 329.051 161.641H328.131C327.951 161.641 327.811 161.731 327.821 161.851L328.251 165.811C328.261 165.931 328.421 166.021 328.611 166.021Z" fill="#263238"/>
  </g>
  <defs>
    <clipPath id="clip0_245_11372">
      <rect width="500" height="372.61" fill="white"/>
    </clipPath>
  </defs>
</svg>
